<svg width="16" height="16" viewBox="0 0 16 16" fill="none" xmlns="http://www.w3.org/2000/svg">
<mask id="path-1-inside-1_2086_3252" fill="white">
<path d="M3.33325 8.50636C3.33325 7.60119 3.33325 7.14861 3.51623 6.75078C3.6992 6.35296 4.04283 6.05842 4.73009 5.46934L5.39675 4.89791C6.63896 3.83316 7.26007 3.30078 7.99992 3.30078C8.73977 3.30078 9.36087 3.83316 10.6031 4.89791L11.2698 5.46934C11.957 6.05842 12.3006 6.35296 12.4836 6.75078C12.6666 7.14861 12.6666 7.60119 12.6666 8.50637V11.3333C12.6666 12.5904 12.6666 13.2189 12.2761 13.6094C11.8855 14 11.257 14 9.99992 14H5.99992C4.74284 14 4.1143 14 3.72378 13.6094C3.33325 13.2189 3.33325 12.5904 3.33325 11.3333V8.50636Z"/>
</mask>
<path d="M9.16659 14C9.16659 14.2761 9.39044 14.5 9.66659 14.5C9.94273 14.5 10.1666 14.2761 10.1666 14H9.16659ZM5.83325 14C5.83325 14.2761 6.05711 14.5 6.33325 14.5C6.60939 14.5 6.83325 14.2761 6.83325 14H5.83325ZM6.99992 10.5H8.99992V9.49996H6.99992V10.5ZM9.16659 10.6666V14H10.1666V10.6666H9.16659ZM5.83325 10.6666V14H6.83325V10.6666H5.83325ZM8.99992 10.5C9.09197 10.5 9.16659 10.5746 9.16659 10.6666H10.1666C10.1666 10.0223 9.64425 9.49996 8.99992 9.49996V10.5ZM6.99992 9.49996C6.35559 9.49996 5.83325 10.0223 5.83325 10.6666H6.83325C6.83325 10.5746 6.90787 10.5 6.99992 10.5V9.49996ZM5.39675 4.89791L6.04754 5.65717L5.39675 4.89791ZM10.6031 4.89791L9.95229 5.65717V5.65717L10.6031 4.89791ZM11.2698 5.46934L11.9205 4.71008V4.71008L11.2698 5.46934ZM4.73009 5.46934L4.0793 4.71008L4.0793 4.71008L4.73009 5.46934ZM11.6666 8.50637V11.3333H13.6666V8.50637H11.6666ZM9.99992 13H5.99992V15H9.99992V13ZM4.33325 11.3333V8.50636H2.33325V11.3333H4.33325ZM5.38088 6.2286L6.04754 5.65717L4.74596 4.13865L4.0793 4.71008L5.38088 6.2286ZM9.95229 5.65717L10.619 6.2286L11.9205 4.71008L11.2539 4.13865L9.95229 5.65717ZM6.04754 5.65717C6.68829 5.10796 7.09931 4.75807 7.43783 4.5345C7.75295 4.32637 7.90028 4.30078 7.99992 4.30078V2.30078C7.35971 2.30078 6.82656 2.54138 6.33561 2.86563C5.86806 3.17443 5.34743 3.62311 4.74596 4.13865L6.04754 5.65717ZM11.2539 4.13865C10.6524 3.62311 10.1318 3.17443 9.66423 2.86563C9.17327 2.54138 8.64012 2.30078 7.99992 2.30078V4.30078C8.09956 4.30078 8.24689 4.32637 8.56201 4.5345C8.90052 4.75807 9.31155 5.10796 9.95229 5.65717L11.2539 4.13865ZM5.99992 13C5.34311 13 4.9511 12.9978 4.67014 12.9601C4.54139 12.9428 4.47691 12.9224 4.44787 12.9104C4.44114 12.9076 4.43672 12.9055 4.43415 12.9041C4.4316 12.9028 4.43047 12.9021 4.43036 12.902C4.43027 12.9019 4.43059 12.9022 4.43105 12.9025C4.43151 12.9029 4.43149 12.9029 4.43088 12.9023L3.01667 14.3165C3.4287 14.7286 3.92967 14.8785 4.40364 14.9422C4.84885 15.0021 5.39965 15 5.99992 15V13ZM2.33325 11.3333C2.33325 11.9336 2.33113 12.4844 2.39098 12.9296C2.45471 13.4035 2.60464 13.9045 3.01667 14.3165L4.43088 12.9023C4.43027 12.9017 4.43031 12.9017 4.43068 12.9022C4.43106 12.9026 4.43127 12.9029 4.43121 12.9028C4.43113 12.9027 4.4304 12.9016 4.42907 12.8991C4.42772 12.8965 4.42556 12.8921 4.4228 12.8853C4.41085 12.8563 4.39046 12.7918 4.37315 12.6631C4.33538 12.3821 4.33325 11.9901 4.33325 11.3333H2.33325ZM11.6666 11.3333C11.6666 11.9901 11.6645 12.3821 11.6267 12.6631C11.6094 12.7918 11.589 12.8563 11.577 12.8853C11.5743 12.8921 11.5721 12.8965 11.5708 12.8991C11.5694 12.9016 11.5687 12.9027 11.5686 12.9028C11.5686 12.9029 11.5688 12.9026 11.5692 12.9022C11.5695 12.9017 11.5696 12.9017 11.569 12.9023L12.9832 14.3165C13.3952 13.9045 13.5451 13.4035 13.6089 12.9296C13.6687 12.4844 13.6666 11.9336 13.6666 11.3333H11.6666ZM9.99992 15C10.6002 15 11.151 15.0021 11.5962 14.9422C12.0702 14.8785 12.5711 14.7286 12.9832 14.3165L11.569 12.9023C11.5683 12.9029 11.5683 12.9029 11.5688 12.9025C11.5692 12.9022 11.5696 12.9019 11.5695 12.902C11.5694 12.9021 11.5682 12.9028 11.5657 12.9041C11.5631 12.9055 11.5587 12.9076 11.552 12.9104C11.5229 12.9224 11.4584 12.9428 11.3297 12.9601C11.0487 12.9978 10.6567 13 9.99992 13V15ZM13.6666 8.50637C13.6666 7.69271 13.688 6.97617 13.3921 6.33292L11.5751 7.16864C11.6452 7.32105 11.6666 7.50968 11.6666 8.50637H13.6666ZM10.619 6.2286C11.3757 6.87723 11.505 7.01623 11.5751 7.16864L13.3921 6.33292C13.0963 5.68968 12.5383 5.2396 11.9205 4.71008L10.619 6.2286ZM4.33325 8.50636C4.33325 7.50968 4.35464 7.32105 4.42474 7.16864L2.60771 6.33292C2.31186 6.97617 2.33325 7.69271 2.33325 8.50636H4.33325ZM4.0793 4.71008C3.46152 5.2396 2.90356 5.68968 2.60771 6.33292L4.42474 7.16864C4.49484 7.01623 4.62414 6.87723 5.38088 6.2286L4.0793 4.71008Z" fill="#F2F2F2" mask="url(#path-1-inside-1_2086_3252)"/>
</svg>
