<svg width="21" height="20" viewBox="0 0 21 20" fill="none" xmlns="http://www.w3.org/2000/svg">
<path fill-rule="evenodd" clip-rule="evenodd" d="M2.91879 7.83195L2.90883 7.8386C2.44517 8.14771 2.16667 8.66809 2.16667 9.22535V15.8334C2.16667 16.2936 2.53976 16.6667 3 16.6667H3.83333C4.29357 16.6667 4.66667 16.2936 4.66667 15.8334V15H16.3333V15.8334C16.3333 16.2936 16.7064 16.6667 17.1667 16.6667H18C18.4602 16.6667 18.8333 16.2936 18.8333 15.8334V9.22535C18.8333 8.66809 18.5548 8.14771 18.0912 7.8386L18.0812 7.83195C18.3849 7.65654 18.66 7.48424 18.7134 7.40745C18.8423 7.22226 18.9016 6.66671 18.7134 6.66671H17.1667L16.191 4.71534C15.7675 3.86838 14.9018 3.33337 13.9549 3.33337H7.04508C6.09815 3.33337 5.2325 3.86838 4.80902 4.71534L3.83333 6.66671H2.28657C2.09845 6.66671 2.15767 7.22226 2.28657 7.40745C2.34001 7.48424 2.61508 7.65654 2.91879 7.83195ZM5.58497 5.04906L4.16013 7.72063C4.01211 7.99817 4.21323 8.33337 4.52778 8.33337H16.4722C16.7868 8.33337 16.9879 7.99817 16.8399 7.72063L15.415 5.04906C15.1254 4.50595 14.56 4.16671 13.9444 4.16671H7.05556C6.44004 4.16671 5.87462 4.50595 5.58497 5.04906ZM3 10.8999V9.89214C3 9.57056 3.34884 9.3702 3.62661 9.53223L6.40897 11.1553C6.79242 11.379 6.60681 11.9673 6.16442 11.9304L3.76413 11.7304C3.33222 11.6944 3 11.3333 3 10.8999ZM18 9.89214V10.8999C18 11.3333 17.6678 11.6944 17.2359 11.7304L14.8356 11.9304C14.3932 11.9673 14.2076 11.379 14.591 11.1553L17.3734 9.53223C17.6512 9.3702 18 9.57056 18 9.89214Z" fill="#939393"/>
</svg>
