<svg width="31" height="30" viewBox="0 0 31 30" fill="none" xmlns="http://www.w3.org/2000/svg">
<path fill-rule="evenodd" clip-rule="evenodd" d="M4.12819 11.7479L4.11325 11.7578C3.41775 12.2215 3 13.0021 3 13.838V23.75C3 24.4404 3.55964 25 4.25 25H5.5C6.19036 25 6.75 24.4404 6.75 23.75V22.5H24.25V23.75C24.25 24.4404 24.8096 25 25.5 25H26.75C27.4404 25 28 24.4404 28 23.75V13.838C28 13.0021 27.5822 12.2215 26.8867 11.7578L26.8718 11.7479C27.3274 11.4848 27.74 11.2263 27.8201 11.1111C28.0135 10.8333 28.1023 10 27.8201 10H25.5L24.0365 7.07295C23.4013 5.80251 22.1028 5 20.6824 5H10.3176C8.89723 5 7.59875 5.80251 6.96353 7.07295L5.5 10H3.17985C2.89767 10 2.98651 10.8333 3.17985 11.1111C3.26002 11.2263 3.67263 11.4848 4.12819 11.7479ZM8.12745 7.57353L5.9902 11.5809C5.76816 11.9972 6.06984 12.5 6.54167 12.5H24.4583C24.9302 12.5 25.2318 11.9972 25.0098 11.5809L22.8725 7.57353C22.4381 6.75887 21.5899 6.25 20.6667 6.25H10.3333C9.41006 6.25 8.56194 6.75887 8.12745 7.57353ZM4.25 16.3498V14.8381C4.25 14.3558 4.77326 14.0552 5.18992 14.2983L9.36346 16.7329C9.93863 17.0684 9.66021 17.9509 8.99663 17.8956L5.39619 17.5955C4.74833 17.5415 4.25 16.9999 4.25 16.3498ZM26.75 14.8381V16.3498C26.75 16.9999 26.2517 17.5415 25.6038 17.5955L22.0034 17.8956C21.3398 17.9509 21.0614 17.0684 21.6365 16.7329L25.8101 14.2983C26.2267 14.0552 26.75 14.3558 26.75 14.8381Z" fill="#676767"/>
</svg>
