<svg width="24" height="24" viewBox="0 0 24 24" fill="none" xmlns="http://www.w3.org/2000/svg">
<path fill-rule="evenodd" clip-rule="evenodd" d="M12 7C9.23858 7 7 9.23858 7 12C7 14.7614 9.23858 17 12 17C12.2761 17 12.5 17.2239 12.5 17.5C12.5 17.7761 12.2761 18 12 18C8.68629 18 6 15.3137 6 12C6 8.68629 8.68629 6 12 6C15.3137 6 18 8.68629 18 12V13.3333C18 14.4379 17.1046 15.3333 16 15.3333C15.2889 15.3333 14.6646 14.9623 14.3099 14.4032C13.7108 14.9792 12.8967 15.3333 12 15.3333C10.1591 15.3333 8.66667 13.8409 8.66667 12C8.66667 10.1591 10.1591 8.66667 12 8.66667C13.8409 8.66667 15.3333 10.1591 15.3333 12C15.3333 12.5167 15.2158 13.006 15.0059 13.4425C15.0603 13.9434 15.4846 14.3333 16 14.3333C16.5523 14.3333 17 13.8856 17 13.3333V12C17 9.23858 14.7614 7 12 7ZM14.0692 13.0793C14.2379 12.7566 14.3333 12.3894 14.3333 12C14.3333 10.7113 13.2887 9.66667 12 9.66667C10.7113 9.66667 9.66667 10.7113 9.66667 12C9.66667 13.2887 10.7113 14.3333 12 14.3333C12.884 14.3333 13.6531 13.8418 14.0491 13.1171C14.0553 13.1042 14.062 13.0916 14.0692 13.0793Z" fill="#222222"/>
</svg>
