<svg width="24" height="24" viewBox="0 0 24 24" fill="none" xmlns="http://www.w3.org/2000/svg">
<path fill-rule="evenodd" clip-rule="evenodd" d="M13.5 6.5C13.5 6.22386 13.7239 6 14 6C16.2091 6 18 7.79086 18 10C18 10.2761 17.7761 10.5 17.5 10.5C17.2239 10.5 17 10.2761 17 10C17 8.34315 15.6569 7 14 7C13.7239 7 13.5 6.77614 13.5 6.5ZM12.8333 8.5C12.8333 8.22386 13.0572 8 13.3333 8C14.8061 8 16 9.19391 16 10.6667C16 10.9428 15.7761 11.1667 15.5 11.1667C15.2239 11.1667 15 10.9428 15 10.6667C15 9.74619 14.2538 9 13.3333 9C13.0572 9 12.8333 8.77614 12.8333 8.5Z" fill="#222222"/>
<path fill-rule="evenodd" clip-rule="evenodd" d="M6 8.91644C6 7.30573 7.30573 6 8.91644 6C9.20926 6 9.4901 6.11633 9.69716 6.32339L9.70074 6.32697L9.76495 6.39267C9.80569 6.43438 9.86388 6.49405 9.9338 6.56596C10.0736 6.7097 10.2605 6.90275 10.4488 7.09942C10.6366 7.29556 10.8278 7.49745 10.9751 7.65814C11.0483 7.73797 11.114 7.81121 11.1639 7.86999C11.1884 7.89884 11.2133 7.92915 11.2347 7.9576C11.2453 7.97158 11.2588 7.99028 11.2723 8.01143L11.2728 8.01222C11.2812 8.02538 11.3121 8.07394 11.3334 8.13948C11.4096 8.3738 11.4096 8.6262 11.3334 8.86052C11.2978 8.97006 11.2293 9.05903 11.2038 9.09214L11.2029 9.0933C11.1642 9.14354 11.118 9.19691 11.0715 9.24838C10.9781 9.35185 10.8584 9.47516 10.7401 9.5967L10.7218 9.61538C10.476 9.86779 10.2479 10.1019 10.1398 10.2456C9.97871 10.4598 9.94454 10.8149 10.022 11.0294C10.022 11.0294 10.0221 11.0296 10.0227 11.0311C10.0258 11.0385 10.1535 11.3046 10.1809 11.3635C10.1351 11.2732 10.2102 11.4265 10.1809 11.3635C10.2739 11.547 10.387 11.7539 10.4921 11.9146C10.9775 12.6574 11.3425 13.012 12.0894 13.5106C12.2831 13.6399 12.5336 13.7763 12.7558 13.8872C12.8653 13.9418 12.9642 13.9884 13.0407 14.0229C13.1132 14.0555 13.1513 14.0707 13.16 14.0742C13.1615 14.0748 13.1619 14.075 13.1619 14.075C13.3581 14.1393 13.5712 14.1286 13.7599 14.0447C13.8635 13.9987 14.1352 13.825 14.4481 13.6199C14.4715 13.6045 14.495 13.5891 14.5184 13.5738C14.6383 13.4951 14.7554 13.4183 14.8515 13.3573C14.9087 13.321 14.964 13.2868 15.0112 13.2597C15.0345 13.2462 15.0608 13.2317 15.0871 13.2187C15.1044 13.2101 15.1562 13.1845 15.2193 13.1688C15.4037 13.1231 15.5963 13.1231 15.7807 13.1688C15.8631 13.1893 15.9418 13.2318 15.9696 13.2469C15.9709 13.2475 15.9731 13.2487 15.9731 13.2487C16.0184 13.2732 16.0706 13.3036 16.1244 13.3359C16.2328 13.4011 16.3652 13.4849 16.497 13.5697C16.7613 13.7399 17.0368 13.9236 17.1415 13.9934C17.6777 14.3508 18 14.9528 18 15.5971C18 16.9242 16.9242 18 15.5971 18H13.9437C13.1339 18 12.336 17.8049 11.6175 17.4313C9.45572 16.3072 7.6928 14.5443 6.56867 12.3825C6.19506 11.664 6 10.8661 6 10.0563V8.91644ZM8.98897 7.02943C8.96955 7.01057 8.94354 7 8.91644 7C7.85802 7 7 7.85802 7 8.91644V10.0563C7 10.7055 7.15637 11.3452 7.45589 11.9212C8.4852 13.9006 10.0994 15.5148 12.0789 16.5441C12.6548 16.8436 13.2945 17 13.9437 17H15.5971C16.3719 17 17 16.3719 17 15.5971C17 15.2871 16.8451 14.9976 16.5871 14.8257C16.4825 14.7559 16.2127 14.576 15.9556 14.4105C15.8266 14.3274 15.7042 14.2501 15.609 14.1929C15.5672 14.1677 15.5339 14.1484 15.5093 14.1348C15.5048 14.1346 15.5003 14.1345 15.4959 14.1346C15.4687 14.1506 15.4326 14.1729 15.3873 14.2017C15.2982 14.2582 15.189 14.3298 15.0689 14.4086C15.0451 14.4243 15.0209 14.4402 14.9963 14.4563C14.7244 14.6345 14.3641 14.8705 14.1658 14.9586C13.7507 15.143 13.2818 15.1668 12.8502 15.0252C12.7568 14.9945 12.537 14.8956 12.3093 14.7819C12.0707 14.6629 11.7781 14.5051 11.5342 14.3423C10.6842 13.7749 10.22 13.3262 9.65501 12.4618C9.39735 12.0676 9.12785 11.4977 9.08135 11.3688C8.89859 10.8625 8.96103 10.1492 9.34064 9.64449C9.48904 9.44717 9.75655 9.17289 9.97512 8.94879C9.99163 8.93186 10.0079 8.91522 10.0237 8.89891C10.1448 8.77466 10.2508 8.66512 10.3293 8.57817C10.355 8.54973 10.3751 8.52657 10.3903 8.50834C10.3904 8.50696 10.3904 8.50558 10.3905 8.5042C10.3533 8.46103 10.3017 8.4034 10.238 8.33392C10.0981 8.18135 9.91293 7.98569 9.72652 7.79099C9.5406 7.59681 9.35554 7.40573 9.21682 7.26305C9.1475 7.19175 9.08983 7.13263 9.04953 7.09137L8.98897 7.02943Z" fill="#222222"/>
</svg>
