<svg width="32" height="32" viewBox="0 0 32 32" fill="none" xmlns="http://www.w3.org/2000/svg">
<path d="M4 11.3333C4 8.50492 4 7.0907 4.87868 6.21202C5.75736 5.33334 7.17157 5.33334 10 5.33334H22C24.8284 5.33334 26.2426 5.33334 27.1213 6.21202C28 7.0907 28 8.50492 28 11.3333V12.3333C28 12.8856 27.5523 13.3333 27 13.3333H26.6667C25.1939 13.3333 24 14.5273 24 16V16C24 17.4728 25.1939 18.6667 26.6667 18.6667H27C27.5523 18.6667 28 19.1144 28 19.6667V20.6667C28 23.4951 28 24.9093 27.1213 25.788C26.2426 26.6667 24.8284 26.6667 22 26.6667H10C7.17157 26.6667 5.75736 26.6667 4.87868 25.788C4 24.9093 4 23.4951 4 20.6667V19.6667C4 19.1144 4.44772 18.6667 5 18.6667H5.33333C6.80609 18.6667 8 17.4728 8 16V16C8 14.5273 6.80609 13.3333 5.33333 13.3333H5C4.44772 13.3333 4 12.8856 4 12.3333V11.3333Z" stroke="#161D2B" stroke-width="1.6"/>
<path d="M15.4089 14.2514C15.6331 13.6714 15.7452 13.3815 15.9273 13.3413C15.9752 13.3307 16.0247 13.3307 16.0725 13.3413C16.2546 13.3815 16.3667 13.6714 16.5909 14.2514C16.7184 14.5812 16.7821 14.7461 16.9014 14.8583C16.9349 14.8898 16.9712 14.9178 17.0098 14.942C17.1477 15.0282 17.3198 15.0442 17.6639 15.0762C18.2466 15.1303 18.5379 15.1574 18.6268 15.3298C18.6453 15.3655 18.6578 15.4041 18.6639 15.4441C18.6934 15.6372 18.4792 15.8394 18.0509 16.2438L17.932 16.3561C17.7317 16.5452 17.6316 16.6397 17.5737 16.7577C17.539 16.8285 17.5157 16.9047 17.5048 16.9833C17.4866 17.1143 17.5159 17.2515 17.5745 17.5258L17.5955 17.6237C17.7006 18.1156 17.7532 18.3615 17.6876 18.4824C17.6286 18.591 17.52 18.6605 17.4 18.6665C17.2665 18.6731 17.0783 18.514 16.702 18.1957C16.454 17.986 16.33 17.8812 16.1924 17.8402C16.0666 17.8028 15.9332 17.8028 15.8075 17.8402C15.6698 17.8812 15.5458 17.986 15.2979 18.1957C14.9215 18.514 14.7333 18.6731 14.5998 18.6665C14.4798 18.6605 14.3712 18.591 14.3123 18.4824C14.2466 18.3615 14.2992 18.1156 14.4044 17.6238L14.4253 17.5258C14.484 17.2515 14.5133 17.1143 14.4951 16.9833C14.4842 16.9047 14.4609 16.8285 14.4261 16.7577C14.3682 16.6397 14.2681 16.5452 14.0679 16.3561L13.9489 16.2438C13.5206 15.8394 13.3064 15.6372 13.3359 15.4441C13.342 15.4041 13.3546 15.3655 13.373 15.3298C13.462 15.1574 13.7533 15.1303 14.3359 15.0762C14.6801 15.0442 14.8522 15.0282 14.99 14.942C15.0287 14.9178 15.065 14.8898 15.0984 14.8583C15.2177 14.7461 15.2815 14.5812 15.4089 14.2514Z" fill="#161D2B" stroke="#161D2B"/>
</svg>
