<svg width="21" height="20" viewBox="0 0 21 20" fill="none" xmlns="http://www.w3.org/2000/svg">
<path fill-rule="evenodd" clip-rule="evenodd" d="M18.8333 9.99996C18.8333 14.6023 15.1024 18.3333 10.5 18.3333C5.89762 18.3333 2.16666 14.6023 2.16666 9.99996C2.16666 5.39759 5.89762 1.66663 10.5 1.66663C15.1024 1.66663 18.8333 5.39759 18.8333 9.99996ZM9.46889 16.5874C8.9199 15.2399 7.35064 11.5891 6.33333 11.25C5.62181 11.0128 4.64027 11.0456 3.92666 11.1179C4.40196 13.933 6.64168 16.1484 9.46889 16.5874ZM4.10787 8.10037C4.92578 5.34391 7.47809 3.33329 10.5 3.33329C13.5219 3.33329 16.0742 5.34391 16.8921 8.10037C15.5765 7.85382 13.2152 7.49996 10.5 7.49996C7.78484 7.49996 5.42354 7.85382 4.10787 8.10037ZM17.0733 11.1179C16.3597 11.0456 15.3782 11.0128 14.6667 11.25C13.6494 11.5891 12.0801 15.2399 11.5311 16.5874C14.3583 16.1484 16.598 13.933 17.0733 11.1179Z" fill="#939393"/>
</svg>
