<svg width="21" height="20" viewBox="0 0 21 20" fill="none" xmlns="http://www.w3.org/2000/svg">
<path fill-rule="evenodd" clip-rule="evenodd" d="M4.61148 5.04272C6.25784 4.49394 8.2217 4.16663 10.5 4.16663C12.7783 4.16663 14.7422 4.49394 16.3885 5.04272C17.2433 5.32766 17.8698 5.61896 18.2678 5.85219L18.4623 5.97325C18.7619 6.17302 18.8993 6.54267 18.8029 6.88966L16.7196 14.3897C16.6028 14.8102 16.1812 15.0694 15.7532 14.9838L15.2248 14.8965L14.8195 14.8407L14.3663 14.7865C13.3435 14.6729 12.196 14.5998 10.9429 14.5858L11.0824 15.1436C11.4794 15.3531 11.75 15.7699 11.75 16.25C11.75 16.9403 11.1904 17.5 10.5 17.5C9.80964 17.5 9.24999 16.9403 9.24999 16.25C9.24999 15.9898 9.32949 15.7481 9.46553 15.548L9.2295 14.6039C8.29518 14.6346 7.42698 14.6984 6.6337 14.7865L6.1805 14.8407L5.7752 14.8965L5.59091 14.9247L5.24677 14.9838C4.81876 15.0694 4.39723 14.8102 4.2804 14.3897L2.19707 6.88966C2.10068 6.54267 2.2381 6.17302 2.53775 5.97325L2.7322 5.85219C3.13022 5.61896 3.75666 5.32766 4.61148 5.04272ZM10.5256 12.9166L9.22511 7.71451C9.11348 7.26801 8.66104 6.99654 8.21454 7.10817C7.76805 7.21979 7.49658 7.67224 7.6082 8.11873L8.81642 12.9516C7.97298 12.9872 7.18211 13.0487 6.44964 13.1301L5.96576 13.1879L5.68667 13.225L3.98084 7.08413L3.84143 7.15157C4.19729 6.97364 4.62963 6.79349 5.13853 6.62386C6.61716 6.13098 8.4033 5.83329 10.5 5.83329C12.5967 5.83329 14.3828 6.13098 15.8615 6.62386L16.1095 6.7095C16.4318 6.82468 16.72 6.9436 16.9743 7.06247L17.0183 7.08413L15.3125 13.225L15.0342 13.1879L14.5504 13.1301C13.3557 12.9973 12.0057 12.9175 10.5256 12.9166Z" fill="#939393"/>
</svg>
