<svg width="24" height="24" viewBox="0 0 24 24" fill="none" xmlns="http://www.w3.org/2000/svg">
<path d="M2.09657 17.1124L2.09618 17.112C1.30127 16.3172 1.30127 15.026 2.09618 14.2312L14.2324 2.09614C15.0273 1.30129 16.3187 1.30129 17.1137 2.09614L21.9038 6.88583C22.6987 7.68066 22.6987 8.9719 21.9038 9.76673L10.7155 20.954L9.86186 21.8075H11.0691H20.4632C20.6525 21.8075 20.8095 21.9645 20.8095 22.1538C20.8095 22.343 20.6525 22.5 20.4632 22.5H3.53683C3.34746 22.5 3.19052 22.343 3.19052 22.1538C3.19052 21.9645 3.34746 21.8075 3.53683 21.8075H5.57646H6.78176L5.93038 20.9543L2.09657 17.1124ZM7.37256 21.4157L7.37244 21.4158L7.38225 21.4251C7.62561 21.6556 7.95703 21.8075 8.31852 21.8075H8.32699C8.68848 21.8075 9.0199 21.6556 9.26326 21.4251L9.26339 21.4252L9.27294 21.4157L12.2097 18.4793L12.5633 18.1257L12.2097 17.7721L6.2262 11.7892L5.87267 11.4357L5.51913 11.7892L2.58241 14.7257L2.92181 15.0651L2.58241 14.7257C2.05706 15.251 2.05706 16.1007 2.58241 16.626L7.37256 21.4157ZM21.4176 9.27222L21.4177 9.27235L21.427 9.26254C21.9144 8.74811 21.9144 7.9383 21.427 7.42388L21.4271 7.42379L21.4191 7.41575L16.629 2.58375L16.6274 2.58219C16.1021 2.05692 15.2524 2.05692 14.7271 2.58219L6.71244 10.596L6.35883 10.9496L6.71244 11.3032L12.6959 17.2861L13.0494 17.6396L13.403 17.2861L21.4176 9.27222Z" fill="#33363F" stroke="#33363F"/>
</svg>
