<svg width="32" height="32" viewBox="0 0 32 32" fill="none" xmlns="http://www.w3.org/2000/svg">
<path d="M6.66667 16L6.66667 5.33331M6.66667 16C5.19391 16 4 17.1939 4 18.6666C4 20.1394 5.19391 21.3333 6.66667 21.3333M6.66667 16C8.13943 16 9.33333 17.1939 9.33333 18.6666C9.33333 20.1394 8.13943 21.3333 6.66667 21.3333M25.3333 26.6666L25.3333 22.6666M25.3333 22.6666C26.8061 22.6666 28 21.4727 28 20C28 18.5272 26.8061 17.3333 25.3333 17.3333M25.3333 22.6666C23.8606 22.6666 22.6667 21.4727 22.6667 20C22.6667 18.5272 23.8606 17.3333 25.3333 17.3333M6.66667 26.6666L6.66667 21.3333M25.3333 17.3333L25.3333 5.33331M16 9.33331V5.33331M16 9.33331C14.5272 9.33331 13.3333 10.5272 13.3333 12C13.3333 13.4727 14.5272 14.6666 16 14.6666M16 9.33331C17.4728 9.33331 18.6667 10.5272 18.6667 12C18.6667 13.4727 17.4728 14.6666 16 14.6666M16 26.6666L16 14.6666" stroke="#0CA2E3" stroke-width="1.8" stroke-linecap="round"/>
</svg>
